<svg width="58" height="58" viewBox="0 0 58 58" fill="none" xmlns="http://www.w3.org/2000/svg">
<rect width="58" height="58" fill="black"/>
<path d="M31.0318 22.3623C29.3359 22.3623 27.95 20.9273 27.95 19.1941C27.95 18.3588 28.2747 17.5577 28.8526 16.967C29.4306 16.3764 30.2144 16.0445 31.0318 16.0445C32.7459 16.0445 34.1318 17.4609 34.1318 19.1941C34.1318 20.9273 32.7459 22.3623 31.0318 22.3623ZM25.4882 44.2786L14.6747 42.0795L15.2947 38.9114L22.8624 40.4955L25.3241 27.7109L22.5524 28.8291V34.1591H19.4706V26.7791L27.4941 23.2941L28.7159 23.145C29.81 23.145 30.7218 23.7786 31.3235 24.7291L32.8918 27.245C34.1318 29.5 36.5935 31.0282 39.5294 31.0282V34.1591C36.1376 34.1591 33.0376 32.6123 31.0318 30.2455L30.12 34.9791L33.3476 38.1286V50H30.2659V40.4955L27.02 37.3459L25.4882 44.2786ZM45 50H41.3529V12.7273H17.6471V37.1595L14 36.3768V9H45V50ZM17.6471 50H14V43.9991L17.6471 44.7818V50Z" fill="white"/>
</svg>
