<svg width="232" height="232" viewBox="0 0 232 232" fill="none" xmlns="http://www.w3.org/2000/svg">
<rect x="174" y="174" width="58" height="58" fill="black"/>
<rect x="58.5" y="116.5" width="57" height="57" fill="#00FF1A" stroke="black"/>
<rect x="58.5" y="58.5" width="57" height="57" fill="#00FF1A" stroke="black"/>
<rect x="116.5" y="58.5" width="57" height="57" fill="#BC7F37" fill-opacity="0.94" stroke="black"/>
<rect x="116.5" y="0.5" width="57" height="57" fill="white" stroke="black"/>
<rect x="174.5" y="58.5" width="57" height="57" fill="#BC7F37" fill-opacity="0.94" stroke="black"/>
<rect x="174.5" y="0.5" width="57" height="57" fill="#BC7F37" fill-opacity="0.94" stroke="black"/>
<rect x="116.5" y="174.5" width="57" height="57" fill="white" stroke="black"/>
<rect x="174.5" y="116.5" width="57" height="57" fill="#00FF1A" stroke="black"/>
<rect x="58.5" y="0.5" width="57" height="57" fill="#00FF1A" stroke="black"/>
<rect x="116.5" y="116.5" width="57" height="57" fill="#00FF1A" stroke="black"/>
<rect x="58.5" y="174.5" width="57" height="57" fill="#BC7F37" fill-opacity="0.94" stroke="black"/>
<rect x="0.5" y="174.5" width="57" height="57" fill="white" stroke="black"/>
<rect x="0.5" y="116.5" width="57" height="57" fill="#BC7F37" fill-opacity="0.94" stroke="black"/>
<rect x="0.5" y="58.5" width="57" height="57" fill="white" fill-opacity="0.94" stroke="black"/>
<rect width="58" height="58" fill="black"/>
</svg>
