<svg width="2802" height="1208" viewBox="0 0 2802 1208" fill="none" xmlns="http://www.w3.org/2000/svg">
<g opacity="0.6">
<path fill-rule="evenodd" clip-rule="evenodd" d="M409.938 0.935547L260.308 233.826H0V0.935547H409.938Z" fill="#484545"/>
<path fill-rule="evenodd" clip-rule="evenodd" d="M0 700.428V233.911H260.308L410.174 467.17L260.308 700.428H0Z" fill="#0A0A0A"/>
<path fill-rule="evenodd" clip-rule="evenodd" d="M0 1167.44V1206.76H285.569L260.308 1167.44H0Z" fill="#484545"/>
<path fill-rule="evenodd" clip-rule="evenodd" d="M0 1167.36V700.839H260.308L410.174 934.097L260.308 1167.36H0Z" fill="#1E1E1E"/>
<path d="M706.629 0.609375L856.495 233.869L706.629 467.127H406.893L257.026 233.869L406.894 0.609375H706.629Z" fill="#1E1E1E"/>
<path d="M1154.41 233.911L1304.27 467.169L1154.41 700.428H854.672L704.804 467.169L854.672 233.911H1154.41Z" fill="black"/>
<path d="M2047.05 233.911L2196.92 467.169L2047.05 700.428H1747.32L1597.44 467.169L1747.32 233.911H2047.05Z" fill="black"/>
<path d="M1603.64 0.609375L1753.51 233.869L1603.64 467.127H1303.91L1154.04 233.869L1303.91 0.609375H1603.64Z" fill="#1E1E1E"/>
<path d="M2496.29 0.609375L2646.15 233.869L2496.29 467.127H2196.56L2046.69 233.869L2196.56 0.609375H2496.29Z" fill="#1E1E1E"/>
<path d="M1154.41 700.512L1304.27 933.77L1154.41 1167.03H854.672L704.804 933.77L854.672 700.512H1154.41Z" fill="#1E1E1E"/>
<path d="M2047.05 700.512L2196.92 933.77L2047.05 1167.03H1747.32L1597.44 933.77L1747.32 700.512H2047.05Z" fill="#1E1E1E"/>
<path d="M706.629 467.211L856.495 700.47L706.629 933.728H406.893L257.026 700.47L406.894 467.211H706.629Z" fill="#484545"/>
<path d="M1603.64 467.211L1753.51 700.47L1603.64 933.728H1303.91L1154.04 700.47L1303.91 467.211H1603.64Z" fill="#484545"/>
<path d="M2496.29 467.211L2646.15 700.47L2496.29 933.728H2196.56L2046.69 700.47L2196.56 467.211H2496.29Z" fill="#484545"/>
<path fill-rule="evenodd" clip-rule="evenodd" d="M832.978 1204.46H282.823L258.166 1166.09L408.033 932.828H707.767L857.635 1166.09L832.978 1204.46Z" fill="black"/>
<path fill-rule="evenodd" clip-rule="evenodd" d="M1304.94 0.938477L1155.31 233.827H855.574L705.945 0.938477H1304.94Z" fill="#484545"/>
<path fill-rule="evenodd" clip-rule="evenodd" d="M1178.92 1204.46H829.924L854.554 1166.13H1154.29L1178.92 1204.46Z" fill="#484545"/>
<path fill-rule="evenodd" clip-rule="evenodd" d="M2073.02 1204.46H1724.02L1748.66 1166.13H2048.39L2073.02 1204.46Z" fill="#484545"/>
<path fill-rule="evenodd" clip-rule="evenodd" d="M1730.73 1204.47H1176.2L1152.26 1167.4L1302.86 934.139H1604.06L1754.65 1167.4L1730.73 1204.47Z" fill="black"/>
<path fill-rule="evenodd" clip-rule="evenodd" d="M2624.81 1204.47H2070.29L2046.37 1167.4L2196.96 934.139H2498.16L2648.75 1167.4L2624.81 1204.47Z" fill="black"/>
<path fill-rule="evenodd" clip-rule="evenodd" d="M2197.58 0.938477L2047.95 233.827H1748.22L1598.58 0.938477H2197.58Z" fill="#484545"/>
<path fill-rule="evenodd" clip-rule="evenodd" d="M2801.26 2.88281V235.771H2646.06L2496.43 2.88281H2801.26Z" fill="#484545"/>
<path fill-rule="evenodd" clip-rule="evenodd" d="M2801.28 233.527V700.582H2647.2L2493.55 467.053L2647.2 233.527H2801.28Z" fill="black"/>
<path fill-rule="evenodd" clip-rule="evenodd" d="M2801.15 700.838V1167.36H2647.43L2494.14 934.097L2647.43 700.838H2801.15Z" fill="#1E1E1E"/>
<path fill-rule="evenodd" clip-rule="evenodd" d="M2801.28 1167.64V1205.12H2623.27L2648.15 1167.64H2801.28Z" fill="#484545"/>
</g>
</svg>
